HIERARCHY
ROOT joint_Root
{
	OFFSET 0.0 0.0 0.0
	CHANNELS 6 Xposition Yposition Zposition Zrotation Xrotation Yrotation 
	JOINT Hips
	{
		OFFSET -17.1583 93.1646 452.98
		CHANNELS 6 Xposition Yposition Zposition Zrotation Xrotation Yrotation 
		JOINT Spine
		{
			OFFSET 15.7357 0.0 0.0
			CHANNELS 6 Xposition Yposition Zposition Zrotation Xrotation Yrotation 
			JOINT Chest
			{
				OFFSET 8.98455 -0.406207 0.0
				CHANNELS 6 Xposition Yposition Zposition Zrotation Xrotation Yrotation 
				JOINT Neck
				{
					OFFSET 16.3773 0.0 0.0
					CHANNELS 6 Xposition Yposition Zposition Zrotation Xrotation Yrotation 
					JOINT Head
					{
						OFFSET 6.45672 0.0 0.0
						CHANNELS 6 Xposition Yposition Zposition Zrotation Xrotation Yrotation 
						End Site
						{
							OFFSET 0.0 0.0 0.0
						}
					}
				}
				JOINT Shoulder_L
				{
					OFFSET 12.9942 -0.242716 4.98039
					CHANNELS 6 Xposition Yposition Zposition Zrotation Xrotation Yrotation 
					JOINT UpperArm_L
					{
						OFFSET 5.34809 0.0 0.0
						CHANNELS 6 Xposition Yposition Zposition Zrotation Xrotation Yrotation 
						JOINT LowerArm_L
						{
							OFFSET 24.3286 1.87007e-05 0.0
							CHANNELS 6 Xposition Yposition Zposition Zrotation Xrotation Yrotation 
							JOINT Hand_L
							{
								OFFSET 22.2916 0.0 0.0
								CHANNELS 6 Xposition Yposition Zposition Zrotation Xrotation Yrotation 
								End Site
								{
									OFFSET 0.0 0.0 0.0
								}
							}
						}
					}
				}
				JOINT Shoulder_R
				{
					OFFSET 12.9945 -0.242716 -4.98039
					CHANNELS 6 Xposition Yposition Zposition Zrotation Xrotation Yrotation 
					JOINT UpperArm_R
					{
						OFFSET -5.34813 0.0 0.0
						CHANNELS 6 Xposition Yposition Zposition Zrotation Xrotation Yrotation 
						JOINT LowerArm_R
						{
							OFFSET -24.3289 0.000322201 0.0
							CHANNELS 6 Xposition Yposition Zposition Zrotation Xrotation Yrotation 
							JOINT Hand_R
							{
								OFFSET -22.2915 -0.000108084 0.0
								CHANNELS 6 Xposition Yposition Zposition Zrotation Xrotation Yrotation 
								End Site
								{
									OFFSET 0.0 0.0 0.0
								}
							}
						}
					}
				}
			}
		}
		JOINT UpperLeg_L
		{
			OFFSET -2.19248 -6.46944 0.0
			CHANNELS 6 Xposition Yposition Zposition Zrotation Xrotation Yrotation 
			JOINT LowerLeg_L
			{
				OFFSET 39.0811 0.0 -1.23785e-05
				CHANNELS 6 Xposition Yposition Zposition Zrotation Xrotation Yrotation 
				JOINT Foot_L
				{
					OFFSET 40.9854 0.0 -1.26872e-05
					CHANNELS 6 Xposition Yposition Zposition Zrotation Xrotation Yrotation 
					JOINT Toes_L
					{
						OFFSET 11.7543 0.0 0.0
						CHANNELS 6 Xposition Yposition Zposition Zrotation Xrotation Yrotation 
						End Site
						{
							OFFSET 0.0 0.0 0.0
						}
					}
				}
			}
		}
		JOINT UpperLeg_R
		{
			OFFSET -2.19251 6.46944 0.0
			CHANNELS 6 Xposition Yposition Zposition Zrotation Xrotation Yrotation 
			JOINT LowerLeg_R
			{
				OFFSET -39.0811 -0.00228153 -0.0401928
				CHANNELS 6 Xposition Yposition Zposition Zrotation Xrotation Yrotation 
				JOINT Foot_R
				{
					OFFSET -40.9854 0.0 0.0
					CHANNELS 6 Xposition Yposition Zposition Zrotation Xrotation Yrotation 
					JOINT Toes_R
					{
						OFFSET -11.7543 0.0 0.0
						CHANNELS 6 Xposition Yposition Zposition Zrotation Xrotation Yrotation 
						End Site
						{
							OFFSET 0.0 0.0 0.0
						}
					}
				}
			}
		}
	}
}
MOTION
Frames:	7
Frame Time:	0.0333333
0.000000 0.000000 0.000000 0.000000 0.000000 -0.000000 -2.522490 89.480900 400.650000 -84.090400 1.978360 156.419000 15.735700 0.000005 -0.000001 58.157100 83.307700 -54.938000 8.984550 -0.406207 -0.000000 3.838950 -7.162440 6.678310 16.377300 -0.000001 -0.000001 -14.582100 5.900690 -1.164480 6.456720 -0.000001 -0.000000 -7.445660 10.841400 -2.376520 12.994200 -0.242716 4.980390 -90.263100 1.147230 -77.084100 5.348090 -0.000007 -0.000001 -64.352800 5.546880 -19.115300 24.328600 0.000019 0.000005 32.406200 13.103700 -70.348700 22.291600 -0.000001 0.000005 11.692600 4.942290 8.521670 12.994500 -0.242716 -4.980390 91.022900 -4.026410 -75.730000 -5.348130 -0.000001 -0.000004 -64.491100 -12.607600 13.372100 -24.328900 0.000322 -0.000009 0.690168 13.107300 -3.037030 -22.291500 -0.000108 -0.000004 14.310800 5.146510 4.003900 -2.192480 -6.469440 -0.000000 -174.542000 -5.979640 -11.416600 39.081100 -0.000007 -0.000012 0.053627 -0.118663 24.319400 40.985400 -0.000006 -0.000013 -5.123780 11.078300 -67.388500 11.754300 -0.000000 0.000003 -0.042820 -0.271172 -27.724500 -2.192510 6.469440 -0.000001 -175.409000 -7.463040 120.196000 -39.081100 -0.002282 -0.040193 0.053998 -0.017118 71.413600 -40.985400 0.000008 0.000006 -5.861640 -10.173800 -59.983500 -11.754300 -0.000006 -0.000006 0.001394 0.139453 -10.918000
0.000000 0.000000 0.000000 0.000000 0.000000 -0.000000 -2.093970 92.166000 393.257000 -81.497900 1.019380 153.548000 15.735700 0.000005 -0.000001 50.068800 84.110400 -45.465400 8.984550 -0.406207 -0.000000 1.613130 -7.803650 9.320310 16.377300 -0.000001 -0.000001 -13.524700 5.938300 -0.859566 6.456720 -0.000001 -0.000000 -5.381320 12.205600 -3.603810 12.994200 -0.242716 4.980390 -90.029000 0.134461 -77.840600 5.348090 -0.000007 -0.000001 -65.025600 3.117910 -18.250000 24.328600 0.000019 0.000005 31.272800 9.066260 -75.458600 22.291600 -0.000001 0.000005 14.516700 4.898190 9.410340 12.994500 -0.242716 -4.980390 91.345800 -5.640540 -76.555400 -5.348130 -0.000001 -0.000004 -60.674500 -16.694000 17.111100 -24.328900 0.000322 -0.000009 -0.001582 11.834600 0.000049 -22.291500 -0.000108 -0.000004 26.619900 5.003020 6.921120 -2.192480 -6.469440 -0.000000 -172.287000 -7.765210 -6.201330 39.081100 -0.000007 -0.000012 0.021731 -0.099768 12.288400 40.985400 -0.000006 -0.000013 -2.692570 10.168100 -48.803700 11.754300 -0.000000 0.000003 -0.113932 -0.477895 -36.596300 -2.192510 6.469440 -0.000001 -173.245000 -9.364000 119.476000 -39.081100 -0.002282 -0.040193 0.008500 -0.003511 56.373600 -40.985400 0.000008 0.000006 -4.193950 -14.933500 -62.755700 -11.754300 -0.000006 -0.000006 0.001053 0.147526 -10.590500
0.000000 0.000000 0.000000 0.000000 0.000000 -0.000000 -2.050710 93.815200 385.513000 -81.786300 1.126860 152.678000 15.735700 0.000005 -0.000001 44.573800 84.291600 -39.701100 8.984550 -0.406207 -0.000000 0.636132 -8.432860 9.799570 16.377300 -0.000001 -0.000001 -12.874800 6.243570 -0.853143 6.456720 -0.000001 -0.000000 -3.855740 12.896000 -4.187120 12.994200 -0.242716 4.980390 -90.030600 0.143858 -77.985900 5.348090 -0.000007 -0.000001 -65.599100 2.174150 -17.054400 24.328600 0.000019 0.000005 31.602700 6.087080 -80.219500 22.291600 -0.000001 0.000005 23.202900 4.906470 9.261050 12.994500 -0.242716 -4.980390 91.459600 -6.177190 -76.677100 -5.348130 -0.000001 -0.000004 -58.755800 -17.510800 19.312000 -24.328900 0.000322 -0.000009 -0.001039 13.004700 0.000055 -22.291500 -0.000108 -0.000004 39.372400 4.369810 18.456900 -2.192480 -6.469440 -0.000000 -172.939000 -8.680240 -1.345180 39.081100 -0.000007 -0.000012 0.005465 -0.063140 4.947670 40.985400 -0.000006 -0.000013 -2.370580 11.350700 -32.867200 11.754300 -0.000000 0.000003 -0.041635 -0.266575 -27.532100 -2.192510 6.469440 -0.000001 -174.179000 -9.839900 122.519000 -39.081100 -0.002282 -0.040193 0.006654 -0.004016 40.055000 -40.985400 0.000008 0.000006 -3.602830 -14.164200 -65.714700 -11.754300 -0.000006 -0.000006 0.000680 0.155313 -10.274400
0.000000 0.000000 0.000000 0.000000 0.000000 -0.000000 -2.237500 93.969700 377.200000 -83.714200 1.755160 154.297000 15.735700 0.000005 -0.000001 44.367000 83.917600 -40.059500 8.984550 -0.406207 -0.000000 1.108660 -8.942920 8.708890 16.377300 -0.000001 -0.000001 -11.820000 6.437650 -0.766041 6.456720 -0.000001 -0.000000 -3.106740 13.329200 -4.567280 12.994200 -0.242716 4.980390 -90.117800 0.546160 -77.833600 5.348090 -0.000007 -0.000001 -66.823400 2.793580 -15.478700 24.328600 0.000019 0.000005 34.689000 4.761180 -83.160600 22.291600 -0.000001 0.000005 37.211600 4.929000 8.829930 12.994500 -0.242716 -4.980390 91.393300 -5.670010 -76.169200 -5.348130 -0.000001 -0.000004 -58.025300 -17.938000 19.142300 -24.328900 0.000322 -0.000009 -0.001443 11.420800 0.000047 -22.291500 -0.000108 -0.000004 48.724800 4.267800 20.330100 -2.192480 -6.469440 -0.000000 -174.805000 -8.671630 1.539080 39.081100 -0.000007 -0.000012 0.014735 -0.094908 8.825590 40.985400 -0.000006 -0.000013 -4.791720 12.456300 -26.612400 11.754300 -0.000000 0.000003 0.001180 0.023048 -15.641900 -2.192510 6.469440 -0.000001 -175.508000 -8.184390 128.687000 -39.081100 -0.002282 -0.040193 0.015044 -0.023835 26.211200 -40.985400 0.000008 0.000006 -6.036240 -7.528570 -69.717300 -11.754300 -0.000006 -0.000006 0.000330 0.161909 -10.006600
0.000000 0.000000 0.000000 0.000000 0.000000 -0.000000 -2.295140 92.976100 368.750000 -85.497400 1.144110 156.016000 15.735700 0.000005 -0.000001 44.160200 83.567900 -40.349300 8.984550 -0.406207 -0.000000 1.544690 -9.431050 7.756210 16.377300 -0.000001 -0.000001 -10.385800 6.478400 -1.178480 6.456720 -0.000001 -0.000000 -2.424960 13.141200 -4.431490 12.994200 -0.242716 4.980390 -90.123300 0.576728 -77.937600 5.348090 -0.000007 -0.000001 -69.736900 4.360930 -13.296600 24.328600 0.000019 0.000005 39.142700 6.093400 -82.572900 22.291600 -0.000001 0.000005 48.665300 4.878260 9.764860 12.994500 -0.242716 -4.980390 91.249000 -5.008160 -75.976300 -5.348130 -0.000001 -0.000004 -58.567000 -19.151100 18.527600 -24.328900 0.000322 -0.000009 0.001011 5.332410 -0.020570 -22.291500 -0.000108 -0.000004 49.487700 4.588150 15.067900 -2.192480 -6.469440 -0.000000 -176.153000 -5.738500 1.853040 39.081100 -0.000007 -0.000012 0.031234 -0.084341 20.321100 40.985400 -0.000006 -0.000013 -5.714540 13.351400 -30.341700 11.754300 -0.000000 0.000003 0.000665 0.012065 -16.087600 -2.192510 6.469440 -0.000001 -175.643000 -4.936940 133.738000 -39.081100 -0.002282 -0.040193 0.019307 -0.047313 18.665800 -40.985400 0.000008 0.000006 -10.425100 -1.953210 -71.882600 -11.754300 -0.000006 -0.000006 0.000393 0.160778 -10.052500
0.000000 0.000000 0.000000 0.000000 0.000000 -0.000000 -2.316380 91.031900 359.999000 -86.451900 0.828056 158.099000 15.735700 0.000005 -0.000001 48.283400 83.427400 -44.691900 8.984550 -0.406207 -0.000000 2.363080 -8.910320 7.371680 16.377300 -0.000001 -0.000001 -8.786810 6.451970 -1.777120 6.456720 -0.000001 -0.000000 -2.043270 12.567000 -4.938270 12.994200 -0.242716 4.980390 -90.263400 1.173390 -77.359600 5.348090 -0.000007 -0.000001 -73.183800 6.837750 -10.816300 24.328600 0.000019 0.000005 38.874400 9.996960 -77.843100 22.291600 -0.000001 0.000005 47.134200 4.858330 10.160400 12.994500 -0.242716 -4.980390 91.056800 -4.071870 -75.434700 -5.348130 -0.000001 -0.000004 -60.499300 -18.074300 14.871300 -24.328900 0.000322 -0.000009 -0.000636 1.037460 -0.000004 -22.291500 -0.000108 -0.000004 42.023100 4.720500 12.783400 -2.192480 -6.469440 -0.000000 -177.319000 -2.153380 1.261700 39.081100 -0.000007 -0.000012 0.057681 -0.086970 33.553200 40.985400 -0.000006 -0.000013 -8.415330 10.110300 -30.687000 11.754300 -0.000000 0.000003 0.000850 0.015813 -15.935500 -2.192510 6.469440 -0.000001 -173.865000 -2.063700 135.786000 -39.081100 -0.002282 -0.040193 0.057717 -0.129547 22.779100 -40.985400 0.000008 0.000006 -7.280870 -2.752550 -74.870500 -11.754300 -0.000006 -0.000006 0.001425 0.138658 -10.950300
0.000000 0.000000 0.000000 0.000000 0.000000 -0.000000 -2.088700 88.392500 351.745000 -85.310700 1.102220 158.432000 15.735700 0.000005 -0.000001 54.621600 84.063800 -50.580400 8.984550 -0.406207 -0.000000 2.192410 -7.065420 8.218420 16.377300 -0.000001 -0.000001 -7.138820 6.329590 -2.602240 6.456720 -0.000001 -0.000000 -2.224490 11.549500 -5.235240 12.994200 -0.242716 4.980390 -90.784400 3.178650 -76.136500 5.348090 -0.000007 -0.000001 -74.752800 9.208030 -7.296280 24.328600 0.000019 0.000005 36.378300 15.515700 -70.049600 22.291600 -0.000001 0.000005 33.018700 4.951600 8.168470 12.994500 -0.242716 -4.980390 90.588400 -2.134510 -74.578900 -5.348130 -0.000001 -0.000004 -61.591500 -14.481300 8.927770 -24.328900 0.000322 -0.000009 -0.001064 0.517556 -0.000006 -22.291500 -0.000108 -0.000004 29.632100 4.670120 13.703700 -2.192480 -6.469440 -0.000000 -175.987000 -2.549070 -4.214930 39.081100 -0.000007 -0.000012 0.180651 -0.149768 50.339000 40.985400 -0.000006 -0.000013 -10.688600 6.334870 -29.484000 11.754300 -0.000000 0.000003 0.001528 0.031752 -15.288800 -2.192510 6.469440 -0.000001 -170.177000 -1.151590 131.455000 -39.081100 -0.002282 -0.040193 0.487880 -0.633524 37.414300 -40.985400 0.000008 0.000006 4.500590 -4.922090 -67.320800 -11.754300 -0.000006 -0.000006 -0.002722 0.205085 -8.251910
